<?xml version="1.0" encoding="utf-8"?>
<!-- Generator: Adobe Illustrator 23.0.6, SVG Export Plug-In . SVG Version: 6.00 Build 0)  -->
<svg version="1.1" id="iconsImages" xmlns="http://www.w3.org/2000/svg" xmlns:xlink="http://www.w3.org/1999/xlink" x="0px"
	 y="0px" viewBox="0 0 198.788 203.471" enable-background="new 0 0 198.788 203.471" xml:space="preserve">
<g>
	<g>
		<defs>
			<rect id="SVGID_1_" x="-289.277" y="37.661" width="127.339" height="130.338"/>
		</defs>
		<clipPath id="SVGID_2_">
			<use xlink:href="#SVGID_1_"  overflow="visible"/>
		</clipPath>
		
			<rect x="-285.977" y="59.021" clip-path="url(#SVGID_2_)" fill="none" stroke="#C00D0E" stroke-width="6.6" stroke-linecap="round" stroke-linejoin="round" stroke-miterlimit="10" width="102.679" height="105.679"/>
		
			<polyline clip-path="url(#SVGID_2_)" fill="none" stroke="#C00D0E" stroke-width="6.6" stroke-linecap="round" stroke-linejoin="round" stroke-miterlimit="10" points="
			-267.917,59.021 -267.917,40.961 -165.238,40.961 -165.238,146.64 -183.298,146.64 		"/>
	</g>
	
		<rect x="-271.977" y="73.021" fill="none" stroke="#C00D0E" stroke-width="6.6" stroke-linecap="round" stroke-linejoin="round" stroke-miterlimit="10" width="74.679" height="67.082"/>
	
		<polyline fill="none" stroke="#C00D0E" stroke-width="6.6" stroke-linecap="round" stroke-linejoin="round" stroke-miterlimit="10" points="
		-271.977,128.048 -247.83,116.487 -237.59,122.268 -214.839,104.929 -197.298,115.498 	"/>
	<g>
		<defs>
			<rect id="SVGID_3_" x="-289.277" y="37.661" width="127.339" height="130.338"/>
		</defs>
		<clipPath id="SVGID_4_">
			<use xlink:href="#SVGID_3_"  overflow="visible"/>
		</clipPath>
		<path clip-path="url(#SVGID_4_)" fill="#C00D0E" d="M-239.105,95.172c0,4.37-3.543,7.914-7.914,7.914
			c-4.37,0-7.913-3.543-7.913-7.914c0-4.37,3.543-7.913,7.913-7.913C-242.647,87.259-239.105,90.802-239.105,95.172"/>
	</g>
</g>
<g>
	<path fill="none" stroke="#C00D0D" stroke-width="6.6" stroke-linecap="round" stroke-linejoin="round" stroke-miterlimit="10" d="
		M-60.862-114.715c-0.839-0.067-1.687-0.101-2.543-0.101c-10.126,0-19.033,4.862-24.802,12.284
		c-5.76-7.422-14.668-12.284-24.793-12.284c-17.398,0-31.5,14.102-31.5,31.496c0,10.998,5.653,20.651,14.188,26.287
		c9.353,7.46,42.145,33.751,42.145,33.751s44.186-35.415,44.101-35.344c7.349-5.764,12.156-14.628,12.156-24.694
		c0-0.422-0.008-0.841-0.025-1.259"/>
	
		<circle fill="none" stroke="#C00D0D" stroke-width="6.6" stroke-linecap="round" stroke-linejoin="round" stroke-miterlimit="10" cx="-35.117" cy="-110.473" r="26.089"/>
	<g>
		
			<line fill="none" stroke="#C00D0D" stroke-width="6.6" stroke-linecap="round" stroke-linejoin="round" stroke-miterlimit="10" x1="-35.117" y1="-121.95" x2="-35.117" y2="-98.995"/>
		
			<line fill="none" stroke="#C00D0D" stroke-width="6.6" stroke-linecap="round" stroke-linejoin="round" stroke-miterlimit="10" x1="-46.594" y1="-110.473" x2="-23.64" y2="-110.473"/>
	</g>
</g>
<g>
	
		<rect x="-189.216" y="218.722" fill="none" stroke="#C00D0D" stroke-width="6.6" stroke-linecap="round" stroke-linejoin="round" stroke-miterlimit="10" width="104.369" height="95.023"/>
	<g>
		
			<line fill="none" stroke="#C00D0D" stroke-width="6.6" stroke-linecap="round" stroke-linejoin="round" stroke-miterlimit="10" x1="-171.608" y1="227.3" x2="-171.608" y2="210.144"/>
		
			<line fill="none" stroke="#C00D0D" stroke-width="6.6" stroke-linecap="round" stroke-linejoin="round" stroke-miterlimit="10" x1="-154.32" y1="227.3" x2="-154.32" y2="210.144"/>
		
			<line fill="none" stroke="#C00D0D" stroke-width="6.6" stroke-linecap="round" stroke-linejoin="round" stroke-miterlimit="10" x1="-137.031" y1="227.3" x2="-137.031" y2="210.144"/>
		
			<line fill="none" stroke="#C00D0D" stroke-width="6.6" stroke-linecap="round" stroke-linejoin="round" stroke-miterlimit="10" x1="-119.743" y1="227.3" x2="-119.743" y2="210.144"/>
		
			<line fill="none" stroke="#C00D0D" stroke-width="6.6" stroke-linecap="round" stroke-linejoin="round" stroke-miterlimit="10" x1="-102.455" y1="227.3" x2="-102.455" y2="210.144"/>
	</g>
	
		<line fill="none" stroke="#C00D0D" stroke-width="6.6" stroke-linecap="round" stroke-linejoin="round" stroke-miterlimit="10" x1="-189.216" y1="243.797" x2="-84.847" y2="243.797"/>
	
		<polyline fill="none" stroke="#C00D0D" stroke-width="6.6" stroke-linecap="round" stroke-linejoin="round" stroke-miterlimit="10" points="
		-122.064,261.182 -141.214,290.332 -151.999,273.915 	"/>
</g>
<g>
	<path fill="none" stroke="#C00D0D" stroke-width="6.6" stroke-linecap="round" stroke-linejoin="round" stroke-miterlimit="10" d="
		M37.168,145.651c0,8.905,7.219,16.124,16.124,16.124s16.124-7.219,16.124-16.124"/>
	<path fill="none" stroke="#C00D0D" stroke-width="6.6" stroke-linecap="round" stroke-linejoin="round" stroke-miterlimit="10" d="
		M53.292,161.774h92.204c8.905,0,16.124-7.219,16.124-16.124c0,0,0-0.001,0-0.001V41.696H69.416v103.954"/>
	
		<polyline fill="none" stroke="#C00D0D" stroke-width="6.6" stroke-linecap="round" stroke-linejoin="round" stroke-miterlimit="10" points="
		37.168,145.651 37.168,75.582 69.416,75.582 	"/>
	<g>
		
			<line fill="none" stroke="#C00D0D" stroke-width="6.6" stroke-linecap="round" stroke-linejoin="round" stroke-miterlimit="10" x1="86.75" y1="59.729" x2="108.937" y2="59.729"/>
		
			<line fill="none" stroke="#C00D0D" stroke-width="6.6" stroke-linecap="round" stroke-linejoin="round" stroke-miterlimit="10" x1="86.75" y1="75.582" x2="108.937" y2="75.582"/>
		
			<line fill="none" stroke="#C00D0D" stroke-width="6.6" stroke-linecap="round" stroke-linejoin="round" stroke-miterlimit="10" x1="86.75" y1="91.435" x2="108.937" y2="91.435"/>
		
			<line fill="none" stroke="#C00D0D" stroke-width="6.6" stroke-linecap="round" stroke-linejoin="round" stroke-miterlimit="10" x1="86.75" y1="107.289" x2="108.937" y2="107.289"/>
		
			<line fill="none" stroke="#C00D0D" stroke-width="6.6" stroke-linecap="round" stroke-linejoin="round" stroke-miterlimit="10" x1="122.098" y1="59.729" x2="144.285" y2="59.729"/>
		
			<line fill="none" stroke="#C00D0D" stroke-width="6.6" stroke-linecap="round" stroke-linejoin="round" stroke-miterlimit="10" x1="122.098" y1="75.582" x2="144.285" y2="75.582"/>
		
			<line fill="none" stroke="#C00D0D" stroke-width="6.6" stroke-linecap="round" stroke-linejoin="round" stroke-miterlimit="10" x1="122.098" y1="91.435" x2="144.285" y2="91.435"/>
		
			<line fill="none" stroke="#C00D0D" stroke-width="6.6" stroke-linecap="round" stroke-linejoin="round" stroke-miterlimit="10" x1="122.098" y1="107.289" x2="144.285" y2="107.289"/>
		
			<line fill="none" stroke="#C00D0D" stroke-width="6.6" stroke-linecap="round" stroke-linejoin="round" stroke-miterlimit="10" x1="86.75" y1="123.142" x2="108.937" y2="123.142"/>
		
			<line fill="none" stroke="#C00D0D" stroke-width="6.6" stroke-linecap="round" stroke-linejoin="round" stroke-miterlimit="10" x1="86.75" y1="138.995" x2="108.937" y2="138.995"/>
	</g>
</g>
</svg>
