<?xml version="1.0" encoding="utf-8"?>
<!-- Generator: Adobe Illustrator 16.0.0, SVG Export Plug-In . SVG Version: 6.00 Build 0)  -->
<!DOCTYPE svg PUBLIC "-//W3C//DTD SVG 1.1//EN" "http://www.w3.org/Graphics/SVG/1.1/DTD/svg11.dtd">
<svg version="1.1" xmlns="http://www.w3.org/2000/svg" xmlns:xlink="http://www.w3.org/1999/xlink" x="0px" y="0px" width="128px"
	 height="128px" viewBox="0 0 128 128" enable-background="new 0 0 128 128" xml:space="preserve">
<g id="Formular" display="none">
	<g display="inline">
		<g>
			<defs>
				<rect id="SVGID_1_" x="30.203" y="26.665" width="65.038" height="83.453"/>
			</defs>
			<clipPath id="SVGID_2_">
				<use xlink:href="#SVGID_1_"  overflow="visible"/>
			</clipPath>
			
				<polyline clip-path="url(#SVGID_2_)" fill="none" stroke="#C00D0E" stroke-width="4.3272" stroke-linecap="round" stroke-linejoin="round" stroke-miterlimit="10" points="
				87.012,48.665 87.012,34.881 32.366,34.881 32.366,100.189 83.812,100.189 			"/>
			
				<polyline clip-path="url(#SVGID_2_)" fill="none" stroke="#C00D0E" stroke-width="4.3272" stroke-linecap="round" stroke-linejoin="round" stroke-miterlimit="10" points="
				93.066,42.612 93.066,28.828 38.419,28.828 			"/>
			
				<polygon clip-path="url(#SVGID_2_)" fill="none" stroke="#C00D0E" stroke-width="4.3272" stroke-linecap="round" stroke-linejoin="round" stroke-miterlimit="10" points="
				93.076,93.186 87.012,107.953 80.949,93.186 80.949,48.632 93.076,48.632 			"/>
			
				<line clip-path="url(#SVGID_2_)" fill="none" stroke="#C00D0E" stroke-width="4.3272" stroke-linecap="round" stroke-linejoin="round" stroke-miterlimit="10" x1="80.949" y1="57.429" x2="93.076" y2="57.429"/>
			
				<line clip-path="url(#SVGID_2_)" fill="none" stroke="#C00D0E" stroke-width="4.3272" stroke-linecap="round" stroke-linejoin="round" stroke-miterlimit="10" x1="80.949" y1="93.186" x2="93.076" y2="93.186"/>
		</g>
		
			<line fill="none" stroke="#C00D0E" stroke-width="4.3272" stroke-linecap="round" stroke-linejoin="round" stroke-miterlimit="10" x1="57.439" y1="45.278" x2="77.143" y2="45.278"/>
		
			<line fill="none" stroke="#C00D0E" stroke-width="4.3272" stroke-linecap="round" stroke-linejoin="round" stroke-miterlimit="10" x1="57.439" y1="56.079" x2="77.143" y2="56.079"/>
		
			<line fill="none" stroke="#C00D0E" stroke-width="4.3272" stroke-linecap="round" stroke-linejoin="round" stroke-miterlimit="10" x1="57.439" y1="66.879" x2="77.143" y2="66.879"/>
		
			<line fill="none" stroke="#C00D0E" stroke-width="4.3272" stroke-linecap="round" stroke-linejoin="round" stroke-miterlimit="10" x1="57.439" y1="77.682" x2="77.143" y2="77.682"/>
		
			<line fill="none" stroke="#C00D0E" stroke-width="4.3272" stroke-linecap="round" stroke-linejoin="round" stroke-miterlimit="10" x1="57.439" y1="88.482" x2="77.143" y2="88.482"/>
		<g>
			<defs>
				<rect id="SVGID_3_" x="36.759" y="26.009" width="65.038" height="83.452"/>
			</defs>
			<clipPath id="SVGID_4_">
				<use xlink:href="#SVGID_3_"  overflow="visible"/>
			</clipPath>
			<path clip-path="url(#SVGID_4_)" fill="#C00D0E" d="M52.089,45.283c0,1.242-1.006,2.248-2.247,2.248
				c-1.24,0-2.247-1.006-2.247-2.248c0-1.24,1.006-2.246,2.247-2.246C51.083,43.037,52.089,44.043,52.089,45.283"/>
			<path clip-path="url(#SVGID_4_)" fill="#C00D0E" d="M52.089,56.079c0,1.241-1.006,2.247-2.247,2.247
				c-1.24,0-2.247-1.006-2.247-2.247s1.006-2.246,2.247-2.246C51.083,53.833,52.089,54.837,52.089,56.079"/>
			<path clip-path="url(#SVGID_4_)" fill="#C00D0E" d="M52.089,66.879c0,1.242-1.006,2.248-2.247,2.248
				c-1.24,0-2.247-1.006-2.247-2.248c0-1.24,1.006-2.246,2.247-2.246C51.083,64.633,52.089,65.639,52.089,66.879"/>
			<path clip-path="url(#SVGID_4_)" fill="#C00D0E" d="M52.089,77.682c0,1.24-1.006,2.246-2.247,2.246
				c-1.24,0-2.247-1.006-2.247-2.246c0-1.242,1.006-2.248,2.247-2.248C51.083,75.434,52.089,76.439,52.089,77.682"/>
			<path clip-path="url(#SVGID_4_)" fill="#C00D0E" d="M52.089,88.482c0,1.24-1.006,2.246-2.247,2.246
				c-1.24,0-2.247-1.006-2.247-2.246c0-1.242,1.006-2.248,2.247-2.248C51.083,86.234,52.089,87.24,52.089,88.482"/>
		</g>
	</g>
</g>
<g id="Krankmeldung" display="none">
	<g display="inline">
		<defs>
			<rect id="SVGID_5_" x="33.509" y="24.329" width="65.564" height="81.343"/>
		</defs>
		<clipPath id="SVGID_6_">
			<use xlink:href="#SVGID_5_"  overflow="visible"/>
		</clipPath>
		
			<polyline clip-path="url(#SVGID_6_)" fill="none" stroke="#C00D0E" stroke-width="4.238" stroke-linecap="round" stroke-linejoin="round" stroke-miterlimit="10" points="
			84.406,43.747 84.406,26.448 35.628,26.448 35.628,90.828 71.857,90.828 		"/>
	</g>
	
		<line display="inline" fill="none" stroke="#C00D0E" stroke-width="4.238" stroke-linecap="round" stroke-linejoin="round" stroke-miterlimit="10" x1="46.02" y1="37.703" x2="58.214" y2="37.703"/>
	
		<line display="inline" fill="none" stroke="#C00D0E" stroke-width="4.238" stroke-linecap="round" stroke-linejoin="round" stroke-miterlimit="10" x1="46.02" y1="48.731" x2="67.58" y2="48.731"/>
	
		<line display="inline" fill="none" stroke="#C00D0E" stroke-width="4.238" stroke-linecap="round" stroke-linejoin="round" stroke-miterlimit="10" x1="46.02" y1="59.759" x2="67.58" y2="59.759"/>
	
		<line display="inline" fill="none" stroke="#C00D0E" stroke-width="4.238" stroke-linecap="round" stroke-linejoin="round" stroke-miterlimit="10" x1="46.02" y1="70.787" x2="67.58" y2="70.787"/>
	<g display="inline">
		<defs>
			<rect id="SVGID_7_" x="33.509" y="24.329" width="65.564" height="81.343"/>
		</defs>
		<clipPath id="SVGID_8_">
			<use xlink:href="#SVGID_7_"  overflow="visible"/>
		</clipPath>
		
			<path clip-path="url(#SVGID_8_)" fill="none" stroke="#C00D0E" stroke-width="4.238" stroke-linecap="round" stroke-linejoin="round" stroke-miterlimit="10" d="
			M89.813,79.695V49.154c0-2.986-2.421-5.407-5.407-5.407c-2.987,0-5.408,2.42-5.408,5.407v30.541
			c-4.22,2.021-7.141,6.318-7.141,11.311c0,6.93,5.619,12.549,12.549,12.549s12.548-5.619,12.548-12.549
			C96.954,86.014,94.032,81.717,89.813,79.695z"/>
	</g>
</g>
<g id="Mensa" display="none">
	<g display="inline">
		<defs>
			<rect id="SVGID_9_" x="25" y="33.563" width="82.012" height="71.609"/>
		</defs>
		<clipPath id="SVGID_10_">
			<use xlink:href="#SVGID_9_"  overflow="visible"/>
		</clipPath>
		
			<path clip-path="url(#SVGID_10_)" fill="none" stroke="#C00D0E" stroke-width="3.7164" stroke-linecap="round" stroke-linejoin="round" stroke-miterlimit="10" d="
			M26.858,77.713c0,10.875,17.527,19.691,39.147,19.691c21.62,0,39.147-8.816,39.147-19.691H26.858z"/>
		
			<line clip-path="url(#SVGID_10_)" fill="none" stroke="#C00D0E" stroke-width="3.7164" stroke-linecap="round" stroke-linejoin="round" stroke-miterlimit="10" x1="44.484" y1="103.314" x2="87.527" y2="103.314"/>
		
			<line clip-path="url(#SVGID_10_)" fill="none" stroke="#C00D0E" stroke-width="3.7164" stroke-linecap="round" stroke-linejoin="round" stroke-miterlimit="10" x1="66.006" y1="68.023" x2="66.006" y2="35.421"/>
		
			<line clip-path="url(#SVGID_10_)" fill="none" stroke="#C00D0E" stroke-width="3.7164" stroke-linecap="round" stroke-linejoin="round" stroke-miterlimit="10" x1="54.847" y1="68.023" x2="54.847" y2="48.969"/>
		
			<line clip-path="url(#SVGID_10_)" fill="none" stroke="#C00D0E" stroke-width="3.7164" stroke-linecap="round" stroke-linejoin="round" stroke-miterlimit="10" x1="77.165" y1="68.023" x2="77.165" y2="48.969"/>
	</g>
</g>
<g id="Elternportal" display="none">
	<g display="inline">
		<defs>
			<rect id="SVGID_11_" x="19.955" y="26.009" width="89.194" height="76.14"/>
		</defs>
		<clipPath id="SVGID_12_">
			<use xlink:href="#SVGID_11_"  overflow="visible"/>
		</clipPath>
		
			<rect x="21.938" y="27.993" clip-path="url(#SVGID_12_)" fill="none" stroke="#C00D0E" stroke-width="3.9669" stroke-linecap="round" stroke-linejoin="round" stroke-miterlimit="10" width="85.226" height="57.505"/>
	</g>
	
		<rect x="29.15" y="35.205" display="inline" fill="none" stroke="#C00D0E" stroke-width="3.9669" stroke-linecap="round" stroke-linejoin="round" stroke-miterlimit="10" width="70.803" height="38.338"/>
	<g display="inline">
		<defs>
			<rect id="SVGID_13_" x="19.955" y="26.009" width="89.194" height="76.14"/>
		</defs>
		<clipPath id="SVGID_14_">
			<use xlink:href="#SVGID_13_"  overflow="visible"/>
		</clipPath>
		
			<line clip-path="url(#SVGID_14_)" fill="none" stroke="#C00D0E" stroke-width="3.9669" stroke-linecap="round" stroke-linejoin="round" stroke-miterlimit="10" x1="81.332" y1="100.166" x2="47.771" y2="100.166"/>
		
			<line clip-path="url(#SVGID_14_)" fill="none" stroke="#C00D0E" stroke-width="3.9669" stroke-linecap="round" stroke-linejoin="round" stroke-miterlimit="10" x1="57.455" y1="100.166" x2="57.455" y2="85.498"/>
		
			<line clip-path="url(#SVGID_14_)" fill="none" stroke="#C00D0E" stroke-width="3.9669" stroke-linecap="round" stroke-linejoin="round" stroke-miterlimit="10" x1="71.648" y1="100.166" x2="71.648" y2="85.498"/>
		<path clip-path="url(#SVGID_14_)" fill="#C00D0E" d="M66.611,79.52c0,1.139-0.922,2.061-2.06,2.061
			c-1.137,0-2.06-0.922-2.06-2.061c0-1.137,0.923-2.059,2.06-2.059C65.689,77.461,66.611,78.383,66.611,79.52"/>
		<polygon clip-path="url(#SVGID_14_)" fill="#C00D0E" points="73.564,47.509 79.12,64.107 81.377,59.097 87.763,65.482 
			91.537,61.707 85.152,55.322 90.163,53.065 		"/>
	</g>
</g>
<g id="Schulaufgaben" display="none">
	<g display="inline">
		<defs>
			<rect id="SVGID_15_" x="22" y="24.969" width="86.241" height="79.707"/>
		</defs>
		<clipPath id="SVGID_16_">
			<use xlink:href="#SVGID_15_"  overflow="visible"/>
		</clipPath>
		
			<circle clip-path="url(#SVGID_16_)" fill="none" stroke="#C00D0E" stroke-width="4.1528" stroke-linecap="round" stroke-linejoin="round" stroke-miterlimit="10" cx="89.749" cy="86.184" r="16.417"/>
		
			<polyline clip-path="url(#SVGID_16_)" fill="none" stroke="#C00D0E" stroke-width="4.1528" stroke-linecap="round" stroke-linejoin="round" stroke-miterlimit="10" points="
			89.748,78.008 89.748,86.184 83.791,92.141 		"/>
		
			<polyline clip-path="url(#SVGID_16_)" fill="none" stroke="#C00D0E" stroke-width="4.1528" stroke-linecap="round" stroke-linejoin="round" stroke-miterlimit="10" points="
			73.331,83.689 24.077,83.689 24.077,27.045 89.748,27.045 89.748,69.527 		"/>
		
			<line clip-path="url(#SVGID_16_)" fill="none" stroke="#C00D0E" stroke-width="4.1528" stroke-linecap="round" stroke-linejoin="round" stroke-miterlimit="10" x1="40.495" y1="27.045" x2="40.495" y2="83.689"/>
		
			<line clip-path="url(#SVGID_16_)" fill="none" stroke="#C00D0E" stroke-width="4.1528" stroke-linecap="round" stroke-linejoin="round" stroke-miterlimit="10" x1="56.912" y1="27.045" x2="56.912" y2="83.689"/>
		
			<line clip-path="url(#SVGID_16_)" fill="none" stroke="#C00D0E" stroke-width="4.1528" stroke-linecap="round" stroke-linejoin="round" stroke-miterlimit="10" x1="73.331" y1="27.045" x2="73.331" y2="86.184"/>
		
			<line clip-path="url(#SVGID_16_)" fill="none" stroke="#C00D0E" stroke-width="4.1528" stroke-linecap="round" stroke-linejoin="round" stroke-miterlimit="10" x1="89.748" y1="69.528" x2="24.077" y2="69.528"/>
		
			<line clip-path="url(#SVGID_16_)" fill="none" stroke="#C00D0E" stroke-width="4.1528" stroke-linecap="round" stroke-linejoin="round" stroke-miterlimit="10" x1="89.748" y1="55.367" x2="24.077" y2="55.367"/>
		
			<line clip-path="url(#SVGID_16_)" fill="none" stroke="#C00D0E" stroke-width="4.1528" stroke-linecap="round" stroke-linejoin="round" stroke-miterlimit="10" x1="89.748" y1="41.207" x2="24.077" y2="41.207"/>
	</g>
</g>
<g id="Sportpläne" display="none">
	<g display="inline">
		<defs>
			<rect id="SVGID_17_" x="20.097" y="27.423" width="87.805" height="81.154"/>
		</defs>
		<clipPath id="SVGID_18_">
			<use xlink:href="#SVGID_17_"  overflow="visible"/>
		</clipPath>
		
			<circle clip-path="url(#SVGID_18_)" fill="none" stroke="#C00D0E" stroke-width="4.2282" stroke-linecap="round" stroke-linejoin="round" stroke-miterlimit="10" cx="80.715" cy="81.392" r="25.072"/>
		
			<path clip-path="url(#SVGID_18_)" fill="none" stroke="#C00D0E" stroke-width="4.2282" stroke-linecap="round" stroke-linejoin="round" stroke-miterlimit="10" d="
			M97.297,62.588c-4.418,3.9-10.224,6.268-16.582,6.268s-12.165-2.368-16.584-6.27"/>
		
			<path clip-path="url(#SVGID_18_)" fill="none" stroke="#C00D0E" stroke-width="4.2282" stroke-linecap="round" stroke-linejoin="round" stroke-miterlimit="10" d="
			M64.131,100.195c4.42-3.901,10.226-6.269,16.584-6.269c6.357,0,12.162,2.367,16.582,6.266"/>
		
			<polyline clip-path="url(#SVGID_18_)" fill="none" stroke="#C00D0E" stroke-width="4.2282" stroke-linecap="round" stroke-linejoin="round" stroke-miterlimit="10" points="
			57.156,72.791 22.211,72.791 22.211,29.537 89.074,29.537 89.074,57.749 		"/>
		
			<line clip-path="url(#SVGID_18_)" fill="none" stroke="#C00D0E" stroke-width="4.2282" stroke-linecap="round" stroke-linejoin="round" stroke-miterlimit="10" x1="38.927" y1="29.537" x2="38.927" y2="72.791"/>
		
			<line clip-path="url(#SVGID_18_)" fill="none" stroke="#C00D0E" stroke-width="4.2282" stroke-linecap="round" stroke-linejoin="round" stroke-miterlimit="10" x1="55.643" y1="29.537" x2="55.643" y2="72.791"/>
		
			<line clip-path="url(#SVGID_18_)" fill="none" stroke="#C00D0E" stroke-width="4.2282" stroke-linecap="round" stroke-linejoin="round" stroke-miterlimit="10" x1="72.358" y1="29.537" x2="72.358" y2="57.747"/>
		
			<line clip-path="url(#SVGID_18_)" fill="none" stroke="#C00D0E" stroke-width="4.2282" stroke-linecap="round" stroke-linejoin="round" stroke-miterlimit="10" x1="70.762" y1="58.373" x2="22.211" y2="58.373"/>
		
			<line clip-path="url(#SVGID_18_)" fill="none" stroke="#C00D0E" stroke-width="4.2282" stroke-linecap="round" stroke-linejoin="round" stroke-miterlimit="10" x1="89.074" y1="43.956" x2="22.211" y2="43.956"/>
		
			<line clip-path="url(#SVGID_18_)" fill="none" stroke="#C00D0E" stroke-width="4.2282" stroke-linecap="round" stroke-linejoin="round" stroke-miterlimit="10" x1="80.715" y1="56.318" x2="80.715" y2="106.464"/>
		
			<line clip-path="url(#SVGID_18_)" fill="none" stroke="#C00D0E" stroke-width="4.2282" stroke-linecap="round" stroke-linejoin="round" stroke-miterlimit="10" x1="55.643" y1="81.392" x2="105.787" y2="81.392"/>
	</g>
</g>
<g id="Ganztagsbetreuung" display="none">
	<g display="inline">
		<defs>
			<rect id="SVGID_19_" x="20.709" y="23.09" width="86.235" height="83.796"/>
		</defs>
		<clipPath id="SVGID_20_">
			<use xlink:href="#SVGID_19_"  overflow="visible"/>
		</clipPath>
		
			<path clip-path="url(#SVGID_20_)" fill="none" stroke="#C00D0E" stroke-width="4.401" stroke-linecap="round" stroke-linejoin="round" stroke-miterlimit="10" d="
			M67.363,87.369c-3.768,1.544-7.893,2.396-12.217,2.396c-17.804,0-32.237-14.433-32.237-32.237
			c0-17.804,14.433-32.237,32.237-32.237c14.829,0,27.318,10.013,31.079,23.646"/>
		
			<polyline clip-path="url(#SVGID_20_)" fill="none" stroke="#C00D0E" stroke-width="4.401" stroke-linecap="round" stroke-linejoin="round" stroke-miterlimit="10" points="
			55.146,36.371 55.146,57.527 43.448,69.227 		"/>
		
			<circle clip-path="url(#SVGID_20_)" fill="none" stroke="#C00D0E" stroke-width="4.401" stroke-linecap="round" stroke-linejoin="round" stroke-miterlimit="10" cx="85.698" cy="61.198" r="12.274"/>
		
			<path clip-path="url(#SVGID_20_)" fill="none" stroke="#C00D0E" stroke-width="4.401" stroke-linecap="round" stroke-linejoin="round" stroke-miterlimit="10" d="
			M104.743,92.519c0-10.52-8.527-19.047-19.045-19.047c-10.519,0-19.046,8.527-19.046,19.047v12.168h38.091V92.519z"/>
		
			<line clip-path="url(#SVGID_20_)" fill="none" stroke="#C00D0E" stroke-width="4.401" stroke-linecap="round" stroke-linejoin="round" stroke-miterlimit="10" x1="55.146" y1="28.994" x2="55.146" y2="25.291"/>
		
			<line clip-path="url(#SVGID_20_)" fill="none" stroke="#C00D0E" stroke-width="4.401" stroke-linecap="round" stroke-linejoin="round" stroke-miterlimit="10" x1="55.146" y1="89.765" x2="55.146" y2="86.062"/>
		
			<line clip-path="url(#SVGID_20_)" fill="none" stroke="#C00D0E" stroke-width="4.401" stroke-linecap="round" stroke-linejoin="round" stroke-miterlimit="10" x1="26.612" y1="57.527" x2="22.909" y2="57.527"/>
	</g>
</g>
<g id="Neu_am_KKG" display="none">
	<g display="inline">
		<defs>
			<rect id="SVGID_21_" x="26.097" y="27.363" width="75.805" height="73.275"/>
		</defs>
		<clipPath id="SVGID_22_">
			<use xlink:href="#SVGID_21_"  overflow="visible"/>
		</clipPath>
		
			<path clip-path="url(#SVGID_22_)" fill="none" stroke="#C00D0E" stroke-width="3.8177" stroke-linecap="round" stroke-linejoin="round" stroke-miterlimit="10" d="
			M28.006,89.402c0,5.151,4.175,9.327,9.327,9.327c5.15,0,9.326-4.176,9.326-9.327"/>
		
			<path clip-path="url(#SVGID_22_)" fill="none" stroke="#C00D0E" stroke-width="3.8177" stroke-linecap="round" stroke-linejoin="round" stroke-miterlimit="10" d="
			M37.333,98.729h53.334c5.151,0,9.327-4.177,9.327-9.327l0,0v-60.13H46.659v60.13"/>
		
			<polyline clip-path="url(#SVGID_22_)" fill="none" stroke="#C00D0E" stroke-width="3.8177" stroke-linecap="round" stroke-linejoin="round" stroke-miterlimit="10" points="
			28.006,89.402 28.006,48.873 46.659,48.873 		"/>
		
			<line clip-path="url(#SVGID_22_)" fill="none" stroke="#C00D0E" stroke-width="3.8177" stroke-linecap="round" stroke-linejoin="round" stroke-miterlimit="10" x1="56.686" y1="39.702" x2="69.52" y2="39.702"/>
		
			<line clip-path="url(#SVGID_22_)" fill="none" stroke="#C00D0E" stroke-width="3.8177" stroke-linecap="round" stroke-linejoin="round" stroke-miterlimit="10" x1="56.686" y1="48.872" x2="69.52" y2="48.872"/>
		
			<line clip-path="url(#SVGID_22_)" fill="none" stroke="#C00D0E" stroke-width="3.8177" stroke-linecap="round" stroke-linejoin="round" stroke-miterlimit="10" x1="56.686" y1="58.043" x2="69.52" y2="58.043"/>
		
			<line clip-path="url(#SVGID_22_)" fill="none" stroke="#C00D0E" stroke-width="3.8177" stroke-linecap="round" stroke-linejoin="round" stroke-miterlimit="10" x1="56.686" y1="67.213" x2="69.52" y2="67.213"/>
		
			<line clip-path="url(#SVGID_22_)" fill="none" stroke="#C00D0E" stroke-width="3.8177" stroke-linecap="round" stroke-linejoin="round" stroke-miterlimit="10" x1="77.132" y1="39.702" x2="89.967" y2="39.702"/>
		
			<line clip-path="url(#SVGID_22_)" fill="none" stroke="#C00D0E" stroke-width="3.8177" stroke-linecap="round" stroke-linejoin="round" stroke-miterlimit="10" x1="77.132" y1="48.872" x2="89.967" y2="48.872"/>
		
			<line clip-path="url(#SVGID_22_)" fill="none" stroke="#C00D0E" stroke-width="3.8177" stroke-linecap="round" stroke-linejoin="round" stroke-miterlimit="10" x1="77.132" y1="58.043" x2="89.967" y2="58.043"/>
		
			<line clip-path="url(#SVGID_22_)" fill="none" stroke="#C00D0E" stroke-width="3.8177" stroke-linecap="round" stroke-linejoin="round" stroke-miterlimit="10" x1="77.132" y1="67.213" x2="89.967" y2="67.213"/>
		
			<line clip-path="url(#SVGID_22_)" fill="none" stroke="#C00D0E" stroke-width="3.8177" stroke-linecap="round" stroke-linejoin="round" stroke-miterlimit="10" x1="56.686" y1="76.383" x2="69.52" y2="76.383"/>
		
			<line clip-path="url(#SVGID_22_)" fill="none" stroke="#C00D0E" stroke-width="3.8177" stroke-linecap="round" stroke-linejoin="round" stroke-miterlimit="10" x1="56.686" y1="85.554" x2="69.52" y2="85.554"/>
	</g>
</g>
<g id="Herz" display="none">
	<g display="inline">
		<defs>
			<rect id="SVGID_23_" x="26.097" y="33.615" width="75.806" height="63.965"/>
		</defs>
		<clipPath id="SVGID_24_">
			<use xlink:href="#SVGID_23_"  overflow="visible"/>
		</clipPath>
		
			<path clip-path="url(#SVGID_24_)" fill="none" stroke="#C00D0E" stroke-width="3.5216" stroke-linecap="round" stroke-linejoin="round" stroke-miterlimit="10" d="
			M72.484,47.033c-0.448-0.036-0.9-0.054-1.356-0.054c-5.403,0-10.156,2.594-13.234,6.554c-3.074-3.96-7.826-6.554-13.229-6.554
			c-9.283,0-16.808,7.524-16.808,16.806c0,5.868,3.017,11.018,7.571,14.025c4.99,3.98,22.487,18.009,22.487,18.009
			S81.491,76.922,81.446,76.96c3.921-3.075,6.485-7.804,6.485-13.175c0-0.226-0.004-0.45-0.013-0.672"/>
		
			<circle clip-path="url(#SVGID_24_)" fill="none" stroke="#C00D0E" stroke-width="3.5216" stroke-linecap="round" stroke-linejoin="round" stroke-miterlimit="10" cx="86.221" cy="49.297" r="13.92"/>
		
			<line clip-path="url(#SVGID_24_)" fill="none" stroke="#C00D0E" stroke-width="3.5216" stroke-linecap="round" stroke-linejoin="round" stroke-miterlimit="10" x1="86.222" y1="43.173" x2="86.222" y2="55.421"/>
		
			<line clip-path="url(#SVGID_24_)" fill="none" stroke="#C00D0E" stroke-width="3.5216" stroke-linecap="round" stroke-linejoin="round" stroke-miterlimit="10" x1="80.097" y1="49.297" x2="92.345" y2="49.297"/>
	</g>
</g>
<g id="Bilder" display="none">
	<g display="inline">
		<g>
			<defs>
				<rect id="SVGID_25_" x="30.097" y="30.282" width="67.708" height="69.302"/>
			</defs>
			<clipPath id="SVGID_26_">
				<use xlink:href="#SVGID_25_"  overflow="visible"/>
			</clipPath>
			
				<rect x="31.851" y="41.639" clip-path="url(#SVGID_26_)" fill="none" stroke="#C00D0E" stroke-width="3.5093" stroke-linecap="round" stroke-linejoin="round" stroke-miterlimit="10" width="54.597" height="56.192"/>
			
				<polyline clip-path="url(#SVGID_26_)" fill="none" stroke="#C00D0E" stroke-width="3.5093" stroke-linecap="round" stroke-linejoin="round" stroke-miterlimit="10" points="
				41.454,41.639 41.454,32.036 96.05,32.036 96.05,88.227 86.447,88.227 			"/>
		</g>
		
			<rect x="39.295" y="49.083" fill="none" stroke="#C00D0E" stroke-width="3.5093" stroke-linecap="round" stroke-linejoin="round" stroke-miterlimit="10" width="39.708" height="35.669"/>
		
			<polyline fill="none" stroke="#C00D0E" stroke-width="3.5093" stroke-linecap="round" stroke-linejoin="round" stroke-miterlimit="10" points="
			39.295,78.342 52.134,72.194 57.579,75.269 69.676,66.049 79.003,71.669 		"/>
		<g>
			<defs>
				<rect id="SVGID_27_" x="30.097" y="30.282" width="67.708" height="69.302"/>
			</defs>
			<clipPath id="SVGID_28_">
				<use xlink:href="#SVGID_27_"  overflow="visible"/>
			</clipPath>
			<path clip-path="url(#SVGID_28_)" fill="#C00D0E" d="M56.774,60.862c0,2.322-1.884,4.207-4.208,4.207s-4.208-1.885-4.208-4.207
				c0-2.325,1.884-4.208,4.208-4.208S56.774,58.537,56.774,60.862"/>
		</g>
	</g>
</g>
<g id="Kalender">
	<g>
		<defs>
			<rect id="SVGID_29_" x="28.097" y="28.316" width="72.771" height="72.268"/>
		</defs>
		<clipPath id="SVGID_30_">
			<use xlink:href="#SVGID_29_"  overflow="visible"/>
		</clipPath>
		
			<rect x="30.26" y="36.105" clip-path="url(#SVGID_30_)" fill="none" stroke="#C00D0E" stroke-width="4.3282" stroke-linecap="round" stroke-linejoin="round" stroke-miterlimit="10" width="68.443" height="62.315"/>
		
			<line clip-path="url(#SVGID_30_)" fill="none" stroke="#C00D0E" stroke-width="4.3282" stroke-linecap="round" stroke-linejoin="round" stroke-miterlimit="10" x1="41.807" y1="41.73" x2="41.807" y2="30.48"/>
		
			<line clip-path="url(#SVGID_30_)" fill="none" stroke="#C00D0E" stroke-width="4.3282" stroke-linecap="round" stroke-linejoin="round" stroke-miterlimit="10" x1="53.145" y1="41.73" x2="53.145" y2="30.48"/>
		
			<line clip-path="url(#SVGID_30_)" fill="none" stroke="#C00D0E" stroke-width="4.3282" stroke-linecap="round" stroke-linejoin="round" stroke-miterlimit="10" x1="64.482" y1="41.73" x2="64.482" y2="30.48"/>
		
			<line clip-path="url(#SVGID_30_)" fill="none" stroke="#C00D0E" stroke-width="4.3282" stroke-linecap="round" stroke-linejoin="round" stroke-miterlimit="10" x1="75.819" y1="41.73" x2="75.819" y2="30.48"/>
		
			<line clip-path="url(#SVGID_30_)" fill="none" stroke="#C00D0E" stroke-width="4.3282" stroke-linecap="round" stroke-linejoin="round" stroke-miterlimit="10" x1="87.157" y1="41.73" x2="87.157" y2="30.48"/>
		
			<line clip-path="url(#SVGID_30_)" fill="none" stroke="#C00D0E" stroke-width="4.3282" stroke-linecap="round" stroke-linejoin="round" stroke-miterlimit="10" x1="30.26" y1="52.549" x2="98.703" y2="52.549"/>
	</g>
	
		<polyline fill="none" stroke="#C00D0E" stroke-width="4.3282" stroke-linecap="round" stroke-linejoin="round" stroke-miterlimit="10" points="
		74.297,63.95 61.74,83.066 54.666,72.3 	"/>
</g>
</svg>
