<?xml version="1.0" encoding="utf-8"?>
<!-- Generator: Adobe Illustrator 16.0.0, SVG Export Plug-In . SVG Version: 6.00 Build 0)  -->
<!DOCTYPE svg PUBLIC "-//W3C//DTD SVG 1.1//EN" "http://www.w3.org/Graphics/SVG/1.1/DTD/svg11.dtd">
<svg version="1.1" xmlns="http://www.w3.org/2000/svg" xmlns:xlink="http://www.w3.org/1999/xlink" x="0px" y="0px" width="128px"
	 height="128px" viewBox="0 0 128 128" enable-background="new 0 0 128 128" xml:space="preserve">
<g id="Formular" display="none">
	<g display="inline">
		<g>
			<defs>
				<rect id="SVGID_1_" x="37.203" y="32.898" width="51.606" height="66.218"/>
			</defs>
			<clipPath id="SVGID_2_">
				<use xlink:href="#SVGID_1_"  overflow="visible"/>
			</clipPath>
			
				<polyline clip-path="url(#SVGID_2_)" fill="none" stroke="#C00D0E" stroke-width="3.4336" stroke-linecap="round" stroke-linejoin="round" stroke-miterlimit="10" points="
				82.28,50.355 82.28,39.417 38.92,39.417 38.92,91.238 79.741,91.238 			"/>
			
				<polyline clip-path="url(#SVGID_2_)" fill="none" stroke="#C00D0E" stroke-width="3.4336" stroke-linecap="round" stroke-linejoin="round" stroke-miterlimit="10" points="
				87.085,45.552 87.085,34.615 43.723,34.615 			"/>
			
				<polygon clip-path="url(#SVGID_2_)" fill="none" stroke="#C00D0E" stroke-width="3.4336" stroke-linecap="round" stroke-linejoin="round" stroke-miterlimit="10" points="
				87.093,85.681 82.28,97.399 77.47,85.681 77.47,50.329 87.093,50.329 			"/>
			
				<line clip-path="url(#SVGID_2_)" fill="none" stroke="#C00D0E" stroke-width="3.4336" stroke-linecap="round" stroke-linejoin="round" stroke-miterlimit="10" x1="77.47" y1="57.309" x2="87.093" y2="57.309"/>
			
				<line clip-path="url(#SVGID_2_)" fill="none" stroke="#C00D0E" stroke-width="3.4336" stroke-linecap="round" stroke-linejoin="round" stroke-miterlimit="10" x1="77.47" y1="85.681" x2="87.093" y2="85.681"/>
		</g>
		
			<line fill="none" stroke="#C00D0E" stroke-width="3.4336" stroke-linecap="round" stroke-linejoin="round" stroke-miterlimit="10" x1="58.815" y1="47.668" x2="74.449" y2="47.668"/>
		
			<line fill="none" stroke="#C00D0E" stroke-width="3.4336" stroke-linecap="round" stroke-linejoin="round" stroke-miterlimit="10" x1="58.815" y1="56.238" x2="74.449" y2="56.238"/>
		
			<line fill="none" stroke="#C00D0E" stroke-width="3.4336" stroke-linecap="round" stroke-linejoin="round" stroke-miterlimit="10" x1="58.815" y1="64.808" x2="74.449" y2="64.808"/>
		
			<line fill="none" stroke="#C00D0E" stroke-width="3.4336" stroke-linecap="round" stroke-linejoin="round" stroke-miterlimit="10" x1="58.815" y1="73.379" x2="74.449" y2="73.379"/>
		
			<line fill="none" stroke="#C00D0E" stroke-width="3.4336" stroke-linecap="round" stroke-linejoin="round" stroke-miterlimit="10" x1="58.815" y1="81.949" x2="74.449" y2="81.949"/>
		<g>
			<defs>
				<rect id="SVGID_3_" x="42.406" y="32.378" width="51.607" height="66.218"/>
			</defs>
			<clipPath id="SVGID_4_">
				<use xlink:href="#SVGID_3_"  overflow="visible"/>
			</clipPath>
			<path clip-path="url(#SVGID_4_)" fill="#C00D0E" d="M54.57,47.672c0,0.985-0.798,1.783-1.783,1.783
				c-0.984,0-1.783-0.798-1.783-1.783c0-0.984,0.798-1.782,1.783-1.782C53.772,45.89,54.57,46.688,54.57,47.672"/>
			<path clip-path="url(#SVGID_4_)" fill="#C00D0E" d="M54.57,56.238c0,0.984-0.798,1.783-1.783,1.783
				c-0.984,0-1.783-0.799-1.783-1.783c0-0.985,0.798-1.782,1.783-1.782C53.772,54.456,54.57,55.252,54.57,56.238"/>
			<path clip-path="url(#SVGID_4_)" fill="#C00D0E" d="M54.57,64.808c0,0.985-0.798,1.783-1.783,1.783
				c-0.984,0-1.783-0.798-1.783-1.783c0-0.984,0.798-1.782,1.783-1.782C53.772,63.026,54.57,63.823,54.57,64.808"/>
			<path clip-path="url(#SVGID_4_)" fill="#C00D0E" d="M54.57,73.379c0,0.984-0.798,1.782-1.783,1.782
				c-0.984,0-1.783-0.798-1.783-1.782c0-0.985,0.798-1.784,1.783-1.784C53.772,71.595,54.57,72.394,54.57,73.379"/>
			<path clip-path="url(#SVGID_4_)" fill="#C00D0E" d="M54.57,81.949c0,0.984-0.798,1.782-1.783,1.782
				c-0.984,0-1.783-0.798-1.783-1.782c0-0.985,0.798-1.784,1.783-1.784C53.772,80.165,54.57,80.964,54.57,81.949"/>
		</g>
	</g>
</g>
<g id="Krankmeldung" display="none">
	<g display="inline">
		<g>
			<defs>
				<rect id="SVGID_5_" x="38.509" y="30.828" width="56.296" height="69.844"/>
			</defs>
			<clipPath id="SVGID_6_">
				<use xlink:href="#SVGID_5_"  overflow="visible"/>
			</clipPath>
			
				<polyline clip-path="url(#SVGID_6_)" fill="none" stroke="#C00D0E" stroke-width="3.6389" stroke-linecap="round" stroke-linejoin="round" stroke-miterlimit="10" points="
				82.211,47.501 82.211,32.648 40.328,32.648 40.328,87.927 71.436,87.927 			"/>
		</g>
		
			<line fill="none" stroke="#C00D0E" stroke-width="3.6389" stroke-linecap="round" stroke-linejoin="round" stroke-miterlimit="10" x1="49.251" y1="42.312" x2="59.721" y2="42.312"/>
		
			<line fill="none" stroke="#C00D0E" stroke-width="3.6389" stroke-linecap="round" stroke-linejoin="round" stroke-miterlimit="10" x1="49.251" y1="51.78" x2="67.764" y2="51.78"/>
		
			<line fill="none" stroke="#C00D0E" stroke-width="3.6389" stroke-linecap="round" stroke-linejoin="round" stroke-miterlimit="10" x1="49.251" y1="61.249" x2="67.764" y2="61.249"/>
		
			<line fill="none" stroke="#C00D0E" stroke-width="3.6389" stroke-linecap="round" stroke-linejoin="round" stroke-miterlimit="10" x1="49.251" y1="70.719" x2="67.764" y2="70.719"/>
		<g>
			<defs>
				<rect id="SVGID_7_" x="38.509" y="30.828" width="56.296" height="69.844"/>
			</defs>
			<clipPath id="SVGID_8_">
				<use xlink:href="#SVGID_7_"  overflow="visible"/>
			</clipPath>
			
				<path clip-path="url(#SVGID_8_)" fill="none" stroke="#C00D0E" stroke-width="3.6389" stroke-linecap="round" stroke-linejoin="round" stroke-miterlimit="10" d="
				M86.854,78.367V52.144c0-2.564-2.078-4.643-4.643-4.643s-4.644,2.078-4.644,4.643v26.223c-3.623,1.736-6.131,5.426-6.131,9.712
				c0,5.95,4.825,10.774,10.775,10.774c5.95,0,10.774-4.824,10.774-10.774C92.985,83.793,90.477,80.104,86.854,78.367z"/>
		</g>
	</g>
</g>
<g id="Mensa" display="none">
	<g display="inline">
		<defs>
			<rect id="SVGID_9_" x="29" y="33.222" width="69.805" height="60.951"/>
		</defs>
		<clipPath id="SVGID_10_">
			<use xlink:href="#SVGID_9_"  overflow="visible"/>
		</clipPath>
		
			<path clip-path="url(#SVGID_10_)" fill="none" stroke="#C00D0E" stroke-width="3.1632" stroke-linecap="round" stroke-linejoin="round" stroke-miterlimit="10" d="
			M30.582,70.8c0,9.257,14.918,16.761,33.32,16.761s33.32-7.504,33.32-16.761H30.582z"/>
		
			<line clip-path="url(#SVGID_10_)" fill="none" stroke="#C00D0E" stroke-width="3.1632" stroke-linecap="round" stroke-linejoin="round" stroke-miterlimit="10" x1="45.584" y1="92.591" x2="82.221" y2="92.591"/>
		
			<line clip-path="url(#SVGID_10_)" fill="none" stroke="#C00D0E" stroke-width="3.1632" stroke-linecap="round" stroke-linejoin="round" stroke-miterlimit="10" x1="63.902" y1="62.553" x2="63.902" y2="34.803"/>
		
			<line clip-path="url(#SVGID_10_)" fill="none" stroke="#C00D0E" stroke-width="3.1632" stroke-linecap="round" stroke-linejoin="round" stroke-miterlimit="10" x1="54.405" y1="62.553" x2="54.405" y2="46.334"/>
		
			<line clip-path="url(#SVGID_10_)" fill="none" stroke="#C00D0E" stroke-width="3.1632" stroke-linecap="round" stroke-linejoin="round" stroke-miterlimit="10" x1="73.4" y1="62.553" x2="73.4" y2="46.334"/>
	</g>
</g>
<g id="Elternportal" display="none">
	<g display="inline">
		<defs>
			<rect id="SVGID_11_" x="29.955" y="34.228" width="67.85" height="57.919"/>
		</defs>
		<clipPath id="SVGID_12_">
			<use xlink:href="#SVGID_11_"  overflow="visible"/>
		</clipPath>
		
			<rect x="31.463" y="35.737" clip-path="url(#SVGID_12_)" fill="none" stroke="#C00D0E" stroke-width="3.0176" stroke-linecap="round" stroke-linejoin="round" stroke-miterlimit="10" width="64.832" height="43.744"/>
	</g>
	
		<rect x="36.95" y="41.224" display="inline" fill="none" stroke="#C00D0E" stroke-width="3.0176" stroke-linecap="round" stroke-linejoin="round" stroke-miterlimit="10" width="53.86" height="29.163"/>
	<g display="inline">
		<defs>
			<rect id="SVGID_13_" x="29.955" y="34.228" width="67.85" height="57.919"/>
		</defs>
		<clipPath id="SVGID_14_">
			<use xlink:href="#SVGID_13_"  overflow="visible"/>
		</clipPath>
		
			<line clip-path="url(#SVGID_14_)" fill="none" stroke="#C00D0E" stroke-width="3.0176" stroke-linecap="round" stroke-linejoin="round" stroke-miterlimit="10" x1="76.645" y1="90.64" x2="51.114" y2="90.64"/>
		
			<line clip-path="url(#SVGID_14_)" fill="none" stroke="#C00D0E" stroke-width="3.0176" stroke-linecap="round" stroke-linejoin="round" stroke-miterlimit="10" x1="58.481" y1="90.64" x2="58.481" y2="79.481"/>
		
			<line clip-path="url(#SVGID_14_)" fill="none" stroke="#C00D0E" stroke-width="3.0176" stroke-linecap="round" stroke-linejoin="round" stroke-miterlimit="10" x1="69.278" y1="90.64" x2="69.278" y2="79.481"/>
		<path clip-path="url(#SVGID_14_)" fill="#C00D0E" d="M65.447,74.934c0,0.866-0.702,1.567-1.567,1.567s-1.567-0.701-1.567-1.567
			c0-0.865,0.702-1.566,1.567-1.566S65.447,74.068,65.447,74.934"/>
		<polygon clip-path="url(#SVGID_14_)" fill="#C00D0E" points="70.736,50.583 74.962,63.209 76.679,59.399 81.537,64.255 
			84.408,61.383 79.551,56.527 83.362,54.81 		"/>
	</g>
</g>
<g id="Schulaufgaben" display="none">
	<g display="inline">
		<g>
			<defs>
				<rect id="SVGID_15_" x="30.001" y="32.061" width="67.748" height="62.614"/>
			</defs>
			<clipPath id="SVGID_16_">
				<use xlink:href="#SVGID_15_"  overflow="visible"/>
			</clipPath>
			
				<circle clip-path="url(#SVGID_16_)" fill="none" stroke="#C00D0E" stroke-width="3.2623" stroke-linecap="round" stroke-linejoin="round" stroke-miterlimit="10" cx="83.222" cy="80.148" r="12.896"/>
			
				<polyline clip-path="url(#SVGID_16_)" fill="none" stroke="#C00D0E" stroke-width="3.2623" stroke-linecap="round" stroke-linejoin="round" stroke-miterlimit="10" points="
				83.222,73.726 83.222,80.148 78.542,84.828 			"/>
			
				<polyline clip-path="url(#SVGID_16_)" fill="none" stroke="#C00D0E" stroke-width="3.2623" stroke-linecap="round" stroke-linejoin="round" stroke-miterlimit="10" points="
				70.324,78.188 31.632,78.188 31.632,33.692 83.222,33.692 83.222,67.063 			"/>
			
				<line clip-path="url(#SVGID_16_)" fill="none" stroke="#C00D0E" stroke-width="3.2623" stroke-linecap="round" stroke-linejoin="round" stroke-miterlimit="10" x1="44.529" y1="33.692" x2="44.529" y2="78.188"/>
			
				<line clip-path="url(#SVGID_16_)" fill="none" stroke="#C00D0E" stroke-width="3.2623" stroke-linecap="round" stroke-linejoin="round" stroke-miterlimit="10" x1="57.426" y1="33.692" x2="57.426" y2="78.188"/>
			
				<line clip-path="url(#SVGID_16_)" fill="none" stroke="#C00D0E" stroke-width="3.2623" stroke-linecap="round" stroke-linejoin="round" stroke-miterlimit="10" x1="70.324" y1="33.692" x2="70.324" y2="80.148"/>
			
				<line clip-path="url(#SVGID_16_)" fill="none" stroke="#C00D0E" stroke-width="3.2623" stroke-linecap="round" stroke-linejoin="round" stroke-miterlimit="10" x1="83.222" y1="67.064" x2="31.632" y2="67.064"/>
			
				<line clip-path="url(#SVGID_16_)" fill="none" stroke="#C00D0E" stroke-width="3.2623" stroke-linecap="round" stroke-linejoin="round" stroke-miterlimit="10" x1="83.222" y1="55.94" x2="31.632" y2="55.94"/>
			
				<line clip-path="url(#SVGID_16_)" fill="none" stroke="#C00D0E" stroke-width="3.2623" stroke-linecap="round" stroke-linejoin="round" stroke-miterlimit="10" x1="83.222" y1="44.816" x2="31.632" y2="44.816"/>
		</g>
	</g>
</g>
<g id="Sportpläne" display="none">
	<g display="inline">
		<defs>
			<rect id="SVGID_17_" x="31.328" y="33.121" width="67.574" height="62.455"/>
		</defs>
		<clipPath id="SVGID_18_">
			<use xlink:href="#SVGID_17_"  overflow="visible"/>
		</clipPath>
		
			<circle clip-path="url(#SVGID_18_)" fill="none" stroke="#C00D0E" stroke-width="3.254" stroke-linecap="round" stroke-linejoin="round" stroke-miterlimit="10" cx="77.979" cy="74.654" r="19.295"/>
		
			<path clip-path="url(#SVGID_18_)" fill="none" stroke="#C00D0E" stroke-width="3.254" stroke-linecap="round" stroke-linejoin="round" stroke-miterlimit="10" d="
			M90.74,60.184c-3.4,3-7.868,4.823-12.762,4.823c-4.893,0-9.361-1.822-12.763-4.825"/>
		
			<path clip-path="url(#SVGID_18_)" fill="none" stroke="#C00D0E" stroke-width="3.254" stroke-linecap="round" stroke-linejoin="round" stroke-miterlimit="10" d="
			M65.216,89.126c3.401-3.003,7.87-4.824,12.762-4.824s9.36,1.821,12.762,4.821"/>
		
			<polyline clip-path="url(#SVGID_18_)" fill="none" stroke="#C00D0E" stroke-width="3.254" stroke-linecap="round" stroke-linejoin="round" stroke-miterlimit="10" points="
			59.849,68.035 32.955,68.035 32.955,34.748 84.412,34.748 84.412,56.459 		"/>
		
			<line clip-path="url(#SVGID_18_)" fill="none" stroke="#C00D0E" stroke-width="3.254" stroke-linecap="round" stroke-linejoin="round" stroke-miterlimit="10" x1="45.819" y1="34.748" x2="45.819" y2="68.035"/>
		
			<line clip-path="url(#SVGID_18_)" fill="none" stroke="#C00D0E" stroke-width="3.254" stroke-linecap="round" stroke-linejoin="round" stroke-miterlimit="10" x1="58.684" y1="34.748" x2="58.684" y2="68.035"/>
		
			<line clip-path="url(#SVGID_18_)" fill="none" stroke="#C00D0E" stroke-width="3.254" stroke-linecap="round" stroke-linejoin="round" stroke-miterlimit="10" x1="71.548" y1="34.748" x2="71.548" y2="56.458"/>
		
			<line clip-path="url(#SVGID_18_)" fill="none" stroke="#C00D0E" stroke-width="3.254" stroke-linecap="round" stroke-linejoin="round" stroke-miterlimit="10" x1="70.319" y1="56.94" x2="32.955" y2="56.94"/>
		
			<line clip-path="url(#SVGID_18_)" fill="none" stroke="#C00D0E" stroke-width="3.254" stroke-linecap="round" stroke-linejoin="round" stroke-miterlimit="10" x1="84.412" y1="45.845" x2="32.955" y2="45.845"/>
		
			<line clip-path="url(#SVGID_18_)" fill="none" stroke="#C00D0E" stroke-width="3.254" stroke-linecap="round" stroke-linejoin="round" stroke-miterlimit="10" x1="77.979" y1="55.359" x2="77.979" y2="93.95"/>
		
			<line clip-path="url(#SVGID_18_)" fill="none" stroke="#C00D0E" stroke-width="3.254" stroke-linecap="round" stroke-linejoin="round" stroke-miterlimit="10" x1="58.684" y1="74.654" x2="97.274" y2="74.654"/>
	</g>
</g>
<g id="Ganztagsbetreuung">
	<g>
		<g>
			<defs>
				<rect id="SVGID_19_" x="32.709" y="33.547" width="62.096" height="60.339"/>
			</defs>
			<clipPath id="SVGID_20_">
				<use xlink:href="#SVGID_19_"  overflow="visible"/>
			</clipPath>
			
				<path clip-path="url(#SVGID_20_)" fill="none" stroke="#C00D0E" stroke-width="3.1691" stroke-linecap="round" stroke-linejoin="round" stroke-miterlimit="10" d="
				M66.304,79.832c-2.713,1.111-5.683,1.725-8.797,1.725c-12.82,0-23.213-10.393-23.213-23.212
				c0-12.821,10.393-23.213,23.213-23.213c10.678,0,19.671,7.21,22.38,17.027"/>
			
				<polyline clip-path="url(#SVGID_20_)" fill="none" stroke="#C00D0E" stroke-width="3.1691" stroke-linecap="round" stroke-linejoin="round" stroke-miterlimit="10" points="
				57.507,43.11 57.507,58.344 49.083,66.768 			"/>
			
				<circle clip-path="url(#SVGID_20_)" fill="none" stroke="#C00D0E" stroke-width="3.1691" stroke-linecap="round" stroke-linejoin="round" stroke-miterlimit="10" cx="79.507" cy="60.987" r="8.838"/>
			
				<path clip-path="url(#SVGID_20_)" fill="none" stroke="#C00D0E" stroke-width="3.1691" stroke-linecap="round" stroke-linejoin="round" stroke-miterlimit="10" d="
				M93.221,83.54c0-7.575-6.141-13.716-13.714-13.716c-7.575,0-13.715,6.141-13.715,13.716v8.762h27.429V83.54z"/>
			
				<line clip-path="url(#SVGID_20_)" fill="none" stroke="#C00D0E" stroke-width="3.1691" stroke-linecap="round" stroke-linejoin="round" stroke-miterlimit="10" x1="57.507" y1="37.797" x2="57.507" y2="35.131"/>
			
				<line clip-path="url(#SVGID_20_)" fill="none" stroke="#C00D0E" stroke-width="3.1691" stroke-linecap="round" stroke-linejoin="round" stroke-miterlimit="10" x1="57.507" y1="81.557" x2="57.507" y2="78.89"/>
			
				<line clip-path="url(#SVGID_20_)" fill="none" stroke="#C00D0E" stroke-width="3.1691" stroke-linecap="round" stroke-linejoin="round" stroke-miterlimit="10" x1="36.96" y1="58.344" x2="34.294" y2="58.344"/>
		</g>
	</g>
</g>
<g id="Neu_am_KKG" display="none">
	<g display="inline">
		<g>
			<defs>
				<rect id="SVGID_21_" x="34.098" y="36.889" width="58.708" height="56.748"/>
			</defs>
			<clipPath id="SVGID_22_">
				<use xlink:href="#SVGID_21_"  overflow="visible"/>
			</clipPath>
			
				<path clip-path="url(#SVGID_22_)" fill="none" stroke="#C00D0E" stroke-width="2.9566" stroke-linecap="round" stroke-linejoin="round" stroke-miterlimit="10" d="
				M35.576,84.936c0,3.989,3.233,7.224,7.223,7.224c3.989,0,7.222-3.234,7.222-7.224"/>
			
				<path clip-path="url(#SVGID_22_)" fill="none" stroke="#C00D0E" stroke-width="2.9566" stroke-linecap="round" stroke-linejoin="round" stroke-miterlimit="10" d="
				M42.799,92.159h41.306c3.989,0,7.224-3.235,7.224-7.224l0,0V38.368H50.022v46.567"/>
			
				<polyline clip-path="url(#SVGID_22_)" fill="none" stroke="#C00D0E" stroke-width="2.9566" stroke-linecap="round" stroke-linejoin="round" stroke-miterlimit="10" points="
				35.576,84.936 35.576,53.548 50.021,53.548 			"/>
			
				<line clip-path="url(#SVGID_22_)" fill="none" stroke="#C00D0E" stroke-width="2.9566" stroke-linecap="round" stroke-linejoin="round" stroke-miterlimit="10" x1="57.787" y1="46.446" x2="67.726" y2="46.446"/>
			
				<line clip-path="url(#SVGID_22_)" fill="none" stroke="#C00D0E" stroke-width="2.9566" stroke-linecap="round" stroke-linejoin="round" stroke-miterlimit="10" x1="57.787" y1="53.547" x2="67.726" y2="53.547"/>
			
				<line clip-path="url(#SVGID_22_)" fill="none" stroke="#C00D0E" stroke-width="2.9566" stroke-linecap="round" stroke-linejoin="round" stroke-miterlimit="10" x1="57.787" y1="60.65" x2="67.726" y2="60.65"/>
			
				<line clip-path="url(#SVGID_22_)" fill="none" stroke="#C00D0E" stroke-width="2.9566" stroke-linecap="round" stroke-linejoin="round" stroke-miterlimit="10" x1="57.787" y1="67.751" x2="67.726" y2="67.751"/>
			
				<line clip-path="url(#SVGID_22_)" fill="none" stroke="#C00D0E" stroke-width="2.9566" stroke-linecap="round" stroke-linejoin="round" stroke-miterlimit="10" x1="73.622" y1="46.446" x2="83.562" y2="46.446"/>
			
				<line clip-path="url(#SVGID_22_)" fill="none" stroke="#C00D0E" stroke-width="2.9566" stroke-linecap="round" stroke-linejoin="round" stroke-miterlimit="10" x1="73.622" y1="53.547" x2="83.562" y2="53.547"/>
			
				<line clip-path="url(#SVGID_22_)" fill="none" stroke="#C00D0E" stroke-width="2.9566" stroke-linecap="round" stroke-linejoin="round" stroke-miterlimit="10" x1="73.622" y1="60.65" x2="83.562" y2="60.65"/>
			
				<line clip-path="url(#SVGID_22_)" fill="none" stroke="#C00D0E" stroke-width="2.9566" stroke-linecap="round" stroke-linejoin="round" stroke-miterlimit="10" x1="73.622" y1="67.751" x2="83.562" y2="67.751"/>
			
				<line clip-path="url(#SVGID_22_)" fill="none" stroke="#C00D0E" stroke-width="2.9566" stroke-linecap="round" stroke-linejoin="round" stroke-miterlimit="10" x1="57.787" y1="74.853" x2="67.726" y2="74.853"/>
			
				<line clip-path="url(#SVGID_22_)" fill="none" stroke="#C00D0E" stroke-width="2.9566" stroke-linecap="round" stroke-linejoin="round" stroke-miterlimit="10" x1="57.787" y1="81.955" x2="67.726" y2="81.955"/>
		</g>
	</g>
</g>
</svg>
